<?xml version="1.0" standalone="no"?>
<!DOCTYPE svg PUBLIC "-//W3C//DTD SVG 1.1//EN" "http://www.w3.org/Graphics/SVG/1.1/DTD/svg11.dtd" >
<svg xmlns="http://www.w3.org/2000/svg">
<metadata>Generated by IcoMoon</metadata>
<defs>
<font id="icomoon" horiz-adv-x="1024">
<font-face units-per-em="1024" ascent="960" descent="-64" />
<missing-glyph horiz-adv-x="1024" />
<glyph unicode="&#x20;" d="" horiz-adv-x="512" />
<glyph unicode="&#xe600;" d="M881.068 503.877l-236.147 137.781c-52.637 30.766-138.851 81.018-191.717 111.784l-244.797 137.781c-52.621 30.751-104.417 6.068-104.417-55.021v-776.421c0-60.875 51.781-85.787 104.417-55.021l240.457 137.781c52.851 30.766 141.251 81.034 193.903 111.784l237.201 137.781c52.652 30.735 53.752 81.003 1.1 111.769z" />
<glyph unicode="&#xe601;" d="M177.274 543.629l-142.856 142.856v-714.248l142.856 142.856zM833.398 556.941l142.856 142.871h-928.523l142.871-142.871zM190.602 101.766l-142.871-142.84h928.523l-142.856 142.84zM846.726 543.629v-428.536l142.856-142.856v714.248zM512 809.671l117.439-86.872h86.688l-168.425 122.574h-71.405l-168.425-122.574h86.688z" />
<glyph unicode="&#xe602;" d="M308.209 906.507h-101.88c-56.32 0-101.896-45.576-101.896-101.896v-713.239c0-56.32 45.576-101.896 101.896-101.896h101.88c56.335 0 101.896 45.576 101.896 101.896v713.239c0 56.32-45.56 101.896-101.896 101.896zM817.672 906.507h-101.88c-56.335 0-101.896-45.576-101.896-101.896v-713.239c0-56.32 45.56-101.896 101.896-101.896h101.88c56.32 0 101.896 45.576 101.896 101.896v713.239c0 56.32-45.576 101.896-101.896 101.896z" />
<glyph unicode="&#xe603;" d="M255.159 904.597h-171.222c-15.681 0-28.534-12.823-28.534-28.534v-171.222c0-15.712 12.853-28.534 28.534-28.534h171.222c15.681 0 28.534 12.823 28.534 28.534v171.222c0 15.712-12.838 28.534-28.534 28.534zM255.159 562.153h-171.222c-15.681 0-28.534-12.823-28.534-28.534v-171.222c0-15.712 12.853-28.534 28.534-28.534h171.222c15.681 0 28.534 12.823 28.534 28.534v171.222c0 15.712-12.838 28.534-28.534 28.534zM255.159 219.694h-171.222c-15.681 0-28.534-12.823-28.534-28.534v-171.222c0-15.712 12.853-28.534 28.534-28.534h171.222c15.681 0 28.534 12.823 28.534 28.534v171.222c0 15.727-12.838 28.534-28.534 28.534zM597.619 904.597h-171.237c-15.681 0-28.534-12.823-28.534-28.534v-171.222c0-15.712 12.853-28.534 28.534-28.534h171.222c15.681 0 28.534 12.823 28.534 28.534v171.222c0.015 15.712-12.838 28.534-28.519 28.534zM597.619 562.153h-171.237c-15.681 0-28.534-12.823-28.534-28.534v-171.222c0-15.712 12.853-28.534 28.534-28.534h171.222c15.681 0 28.534 12.823 28.534 28.534v171.222c0.015 15.712-12.838 28.534-28.519 28.534zM597.619 219.694h-171.237c-15.681 0-28.534-12.823-28.534-28.534v-171.222c0-15.712 12.853-28.534 28.534-28.534h171.222c15.681 0 28.534 12.823 28.534 28.534v171.222c0.015 15.727-12.838 28.534-28.519 28.534zM940.063 904.597h-171.222c-15.696 0-28.534-12.823-28.534-28.534v-171.222c0-15.712 12.838-28.534 28.534-28.534h171.222c15.696 0 28.534 12.823 28.534 28.534v171.222c0 15.712-12.838 28.534-28.534 28.534zM940.063 562.153h-171.222c-15.696 0-28.534-12.823-28.534-28.534v-171.222c0-15.712 12.838-28.534 28.534-28.534h171.222c15.696 0 28.534 12.823 28.534 28.534v171.222c0 15.712-12.838 28.534-28.534 28.534zM940.063 219.694h-171.222c-15.696 0-28.534-12.823-28.534-28.534v-171.222c0-15.712 12.838-28.534 28.534-28.534h171.222c15.696 0 28.534 12.823 28.534 28.534v171.222c0 15.727-12.838 28.534-28.534 28.534z" />
<glyph unicode="&#xe604;" d="M821.477 656.881v222.376h-125.845v-126.288l-183.632 140.15-485.605-370.688 76.357-100.016 52.285 39.875v-459.409h713.957v459.409l52.255-39.875 76.372 99.955-176.143 134.511zM799.056 72.834h-161.196v265.69h-251.721v-265.705h-161.15v433.962l287.010 219.197 287.056-219.182v-433.962z" />
<glyph unicode="&#xe605;" d="M860.405 804.046v115.834h-810.794v-810.794h115.834v-115.834h810.794v810.794h-115.834zM918.329 51.162h-694.975v694.975h694.975v-694.975zM107.52 861.971h694.975v-57.925h-637.050v-637.050h-57.925v694.975zM281.264 688.227h579.141v-463.307h-579.141v463.307zM733.612 482.388h-137.552v137.552h-45.851v-137.552h-137.552v-45.851h137.552v-137.552h45.851v137.552h137.552z" />
<glyph unicode="&#xe606;" d="M871.638 807.638v117.974h-825.848v-825.848h117.974v-117.974h825.848v825.848h-117.974zM930.633 40.769h-707.874v707.874h707.859v-707.874zM104.769 866.633h707.859v-58.995h-648.864v-648.88h-58.995v707.874zM281.753 689.664h589.885v-471.911h-589.885v471.911z" />
<glyph unicode="&#xe607;" d="M860.405 804.046v115.834h-810.794v-810.794h115.834v-115.834h810.794v810.794h-115.834zM918.329 51.162h-694.975v694.975h694.975v-694.975zM107.52 861.971h694.975v-57.925h-637.050v-637.050h-57.925v694.975zM281.264 688.227h579.141v-463.307h-579.141v463.307zM622.974 509.302l-44.108 132.295-44.093-132.295h-132.31l109.048-75.119-64.94-145.393 132.295 88.202 132.31-88.202-64.955 145.393 109.048 75.119z" />
<glyph unicode="&#xe608;" d="M556.46 492.445v444.63h-88.92v-444.63h-444.615v-88.905h444.615v-444.615h88.92v444.615h444.615v88.905z" />
<glyph unicode="&#xe609;" d="M556.46 492.445v444.63h-88.92v-444.63h-444.615v-88.905h444.615v-444.615h88.92v444.615h444.615v88.905z" />
<glyph unicode="&#xe60a;" d="M1001.075 570.269h-567.648l261.961 305.672h-305.656l-366.806-427.94 366.806-427.94h305.656l-261.961 305.641h567.648z" />
<glyph unicode="&#xe60b;" d="M857.837 793.852c-190.968 190.831-500.751 190.831-691.597 0-191.106-190.984-191.106-500.614 0-691.597 190.999-190.968 500.629-190.968 691.597 0 190.999 190.831 190.999 500.614 0 691.597zM371.911 192.764v510.579l437.691-255.297-437.691-255.282z" />
<glyph unicode="&#xe60c;" d="M368.12 448c0-3.347-0.703-6.45-0.902-9.797l350.453-175.15c29.956 25.355 68.409 41.22 110.821 41.22 95.339 0 172.567-77.289 172.567-172.659s-77.228-172.72-172.567-172.72c-95.477 0-172.674 77.35-172.674 172.72 0 3.408 0.779 6.511 0.948 9.858l-350.453 175.257c-30.093-25.401-68.348-41.281-110.806-41.281-95.263 0-172.582 77.213-172.582 172.552 0 95.4 77.32 172.704 172.613 172.704 42.443 0 80.713-15.941 110.806-41.235l350.453 175.18c-0.183 3.332-0.948 6.48-0.948 9.888 0 95.278 77.197 172.552 172.674 172.552 95.339 0 172.567-77.274 172.567-172.552 0-95.339-77.228-172.704-172.567-172.704-42.58 0-80.865 16.002-110.821 41.419l-350.453-175.333c0.168-3.271 0.871-6.434 0.871-9.919z" />
<glyph unicode="&#xe60d;" d="M566.364 882.726h-108.697l-434.741-434.711h108.682zM22.925 448.015h108.682l434.757-434.741h-108.697zM1001.075 882.726h-108.682l-434.726-434.711h108.697zM457.667 448.015h108.697l434.711-434.741h-108.682z" />
<glyph unicode="&#xe60e;" d="M573.134 570.269h-122.269v-305.672h-122.269l183.403-244.537 183.403 244.537h-122.269zM878.454 597.428l0.352 3.408c0 151.934-123.109 275.104-275.104 275.104-102.094 0-190.204-56.244-237.629-138.867-20.633 10.271-43.451 16.598-68.043 16.598-84.411 0-152.836-68.425-152.836-152.836l0.352-3.408c-72.826-42.443-122.62-120.572-122.62-210.562 0-134.511 110.072-244.537 244.537-244.537v61.134c-101.131 0-183.403 82.272-183.403 183.403 0 64.115 35.336 124.531 92.298 157.711l30.323 17.744v35.106l-0.245 6.389c1.559 49.198 42.030 88.721 91.579 88.721 13.495 0 27.22-3.469 40.715-10.148l51.582-25.799 28.779 50.023c38.927 67.722 107.948 108.192 184.61 108.192 116.782 0 211.937-93.963 213.97-210.272l-0.352-2.262v-39.936l30.323-17.744c56.962-33.196 92.298-93.612 92.298-157.727 0-101.131-82.272-183.403-183.403-183.403v-61.134c134.572 0 244.537 110.027 244.537 244.537 0 89.99-49.794 168.119-122.62 210.562z" />
<glyph unicode="&#xe60f;" d="M457.667 13.274h108.666l434.741 434.741h-108.682zM1001.075 448.015h-108.682l-434.726 434.711h108.666zM22.925 13.274h108.682l434.726 434.741h-108.666zM566.333 448.015h-108.666l-434.741 434.711h108.682z" />
<glyph unicode="&#xe610;" d="M878.454 597.428l0.367 3.393c0 151.965-123.109 275.104-275.089 275.104-102.11 0-190.235-56.228-237.644-138.867-20.663 10.286-43.467 16.613-68.043 16.613-84.411 0-152.851-68.425-152.851-152.836l0.367-3.393c-72.857-42.458-122.635-120.603-122.635-210.577 0-134.526 110.103-244.537 244.537-244.537h61.134v61.119h-61.134c-101.131 0-183.388 82.272-183.388 183.418 0 64.145 35.336 124.531 92.282 157.757l30.323 17.714v35.106l-0.245 6.373c1.574 49.213 42.030 88.752 91.61 88.752 13.48 0 27.22-3.5 40.7-10.194l51.582-25.753 28.779 49.993c38.912 67.706 107.948 108.192 184.626 108.192 116.751 0 211.922-93.979 213.97-210.256l-0.367-2.247v-39.967l30.323-17.714c56.977-33.227 92.298-93.612 92.298-157.757 0-101.147-82.272-183.418-183.403-183.418h-61.15v-61.119h61.15c134.572 0 244.522 110.011 244.522 244.537 0 89.974-49.779 168.119-122.62 210.562zM512.015 570.269l-183.418-244.537h122.269v-305.672h122.269v305.672h122.269z" />
<glyph unicode="&#xe611;" d="M22.925 888.167h978.149v-105.747h-978.149v105.747zM22.925 629.966h978.149v-105.747h-978.149v105.747zM22.925 371.781h978.149v-105.747h-978.149v105.747zM22.925 113.58h978.149v-105.747h-978.149v105.747z" />
<glyph unicode="&#xe612;" d="M450.743 937.075h122.528v-122.513h-122.528v122.513zM266.989 937.075h122.498v-122.513h-122.498v122.513zM266.989 753.305h122.498v-122.513h-122.498v122.513zM83.219 937.075h122.513v-122.513h-122.513v122.513zM83.219 753.305h122.513v-122.513h-122.513v122.513zM266.989 569.55h122.498v-122.513h-122.498v122.513zM83.219 569.55h122.513v-122.513h-122.513v122.513zM787.594 418.931c-82.608 16.522-153.080-33.15-150.192 183.158l-2.873 28.703c0 33.685-24.637 63.182-58.383 63.182-33.609 0-64.13-29.497-64.13-63.182v-306.268c6.939-71.359-34.159-77.641-61.272-45.148-21.519 25.875-66.743 47.058-100.474 47.058-33.639 0-45.102-22.375-25.371-49.641l161.639-193.75c49.29-68.256 130.751-124.133 242.734-124.133 178.986 0 211.509 120.603 211.509 304.357 0 61.272-57.298 136.513-153.187 155.663z" />
<glyph unicode="&#xe613;" d="M949.095 211.853c-27.587 42.993-120.205 69.739-211.907 107.948-91.671 38.209-113.435 51.475-113.435 51.475l-0.841 87.957c0 0 34.357 26.395 45.010 109.171 21.473-6.22 44.032 32.050 45.239 52.224 1.192 19.425-2.965 73.315-29.161 67.89 5.334 40.578 9.231 77.060 7.351 96.378-6.832 70.671-76.403 145.194-183.372 145.194s-176.571-74.523-183.372-145.194c-1.91-19.318 1.987-55.785 7.321-96.378-26.196 5.41-30.338-48.464-29.161-67.89 1.238-20.174 23.751-58.444 45.27-52.224 10.637-82.776 45.010-109.171 45.010-109.171l-0.871-87.957c0 0-21.764-13.266-113.435-51.475-91.701-38.209-184.32-64.955-211.907-107.948-24.698-38.499-17.27-223.629-17.27-223.629h916.801c0 0 7.443 185.13-17.27 223.629z" />
<glyph unicode="&#xe614;" d="M860.405 804.046v115.834h-810.794v-810.794h115.834v-115.834h810.794v810.794h-115.834zM918.329 51.162h-694.975v694.975h694.975v-694.975zM107.52 861.971h694.975v-57.925h-637.050v-637.050h-57.925v694.975zM281.264 688.227h579.141v-463.307h-579.141v463.307zM412.657 497.672h320.955v-76.418h-320.955v76.418z" />
<glyph unicode="&#xe615;" d="M869.147 589.358l0.336 3.332c0 148.067-119.976 268.12-268.12 268.12-99.496 0-185.375-54.822-231.577-135.336-20.113 10.072-42.351 16.17-66.331 16.17-82.272 0-148.939-66.606-148.939-148.939l0.321-3.332c-70.992-41.357-119.502-117.515-119.502-205.213 0-110.378 76.464-203.012 178.741-229.773v62.036c-69.112 24.652-119.166 90.173-119.166 167.753 0 62.556 34.464 121.428 89.959 153.783l29.574 17.225v34.205l-0.245 6.297c1.528 47.945 40.96 86.398 89.256 86.398 13.144 0 26.532-3.332 39.691-9.888l50.268-25.141 28.045 48.755c37.934 66.040 105.212 105.426 179.903 105.426 113.817 0 206.573-91.595 208.544-204.876l-0.336-2.216v-38.988l29.558-17.225c55.525-32.34 89.974-91.228 89.974-153.783 0-77.564-49.931-143.085-119.181-167.753v-62.036c102.415 26.762 178.741 119.395 178.741 229.773 0 87.712-48.51 163.871-119.518 205.228zM750.347 452.279l-238.347 148.954v-89.378c-131.607 0-238.332-106.71-238.332-238.332 0-131.683 106.71-238.347 238.332-238.347 121.489 0 220.527 91.121 235.306 208.56h-89.378c-13.847-67.905-73.896-119.181-145.943-119.181-82.149 0-148.954 66.805-148.954 148.969 0 82.149 66.805 148.954 148.954 148.954v-119.181l238.363 148.984z" />
<glyph unicode="&#xe616;" d="M886.096 538.143l0.367 3.485c0 155.098-125.753 280.821-280.851 280.821-104.219 0-194.178-57.405-242.627-141.755-21.030 10.485-44.307 16.934-69.418 16.934-86.169 0-156.015-69.831-156.015-156.015l0.352-3.485c-74.355-43.329-125.173-123.109-125.173-214.948 0-137.292 112.319-249.627 249.642-249.627h499.253c137.308 0 249.642 112.334 249.642 249.642 0 91.839-50.833 171.619-125.173 214.948zM512 135.955c-137.858 0-249.627 111.723-249.627 249.627 0 137.873 111.769 249.642 249.627 249.642v93.612l187.224-156.015-187.224-156.030v124.821c-86.047 0-156.015-69.968-156.015-156.030 0-86.047 69.968-156.015 156.015-156.015s156.015 69.968 156.015 156.015h93.612c0-137.904-111.769-249.627-249.627-249.627z" />
</font>
</defs>
</svg>
